<?xml version="1.0" encoding="UTF-8" standalone="no"?>
<!-- Created with Inkscape (http://www.inkscape.org/) -->

<svg
   xmlns:dc="http://purl.org/dc/elements/1.1/"
   xmlns:cc="http://creativecommons.org/ns#"
   xmlns:rdf="http://www.w3.org/1999/02/22-rdf-syntax-ns#"
   xmlns:svg="http://www.w3.org/2000/svg"
   xmlns="http://www.w3.org/2000/svg"
   xmlns:sodipodi="http://sodipodi.sourceforge.net/DTD/sodipodi-0.dtd"
   xmlns:inkscape="http://www.inkscape.org/namespaces/inkscape"
   version="1.1"
   id="svg2"
   width="570"
   height="456"
   viewBox="0 0 570 456"
   sodipodi:docname="logo_musica.svg"
   inkscape:version="0.92.4 (5da689c313, 2019-01-14)">
  <metadata
     id="metadata8">
    <rdf:RDF>
      <cc:Work
         rdf:about="">
        <dc:format>image/svg+xml</dc:format>
        <dc:type
           rdf:resource="http://purl.org/dc/dcmitype/StillImage" />
        <dc:title></dc:title>
      </cc:Work>
    </rdf:RDF>
  </metadata>
  <defs
     id="defs6" />
  <sodipodi:namedview
     pagecolor="#ffffff"
     bordercolor="#666666"
     borderopacity="1"
     objecttolerance="10"
     gridtolerance="10"
     guidetolerance="10"
     inkscape:pageopacity="0"
     inkscape:pageshadow="2"
     inkscape:window-width="1366"
     inkscape:window-height="705"
     id="namedview4"
     showgrid="false"
     inkscape:zoom="0.51754386"
     inkscape:cx="285"
     inkscape:cy="228"
     inkscape:window-x="-8"
     inkscape:window-y="-8"
     inkscape:window-maximized="1"
     inkscape:current-layer="svg2" />
  <path
     style="fill:#000000"
     d="m 60.838984,382.95132 c -4.673208,-2.45931 -8.468115,-6.41317 -11.093247,-11.55791 -3.118441,-6.11152 -3.048361,-6.3744 0.897074,-3.36507 7.565105,5.77019 16.32663,7.23355 21.052453,3.51622 2.784789,-2.19051 5.031949,-8.58164 6.130029,-17.43439 0.55092,-4.44154 -0.28506,-19.11198 -2.11652,-37.14229 -0.58108,-5.72065 -0.47273,-6.19026 1.57851,-6.8413 1.21133,-0.38446 2.41843,-0.48301 2.68245,-0.219 1.14334,1.14334 4.44129,32.17312 4.48543,42.20259 0.0724,16.44407 -3.59045,27.62541 -10.16306,31.02424 -3.67918,1.90258 -9.64417,1.8214 -13.453119,-0.18309 z m 151.623426,-2.99916 c -8.58266,-4.3577 -6.47256,-13.85063 4.37657,-19.68931 3.31286,-1.78288 5.67492,-2.15268 13.75012,-2.15268 h 9.75013 l -1.3e-4,-3.25 c -6e-5,-1.7875 -0.11262,-3.24879 -0.25012,-3.24731 -0.1375,10e-4 -5.63875,1.36493 -12.22501,3.02989 -16.91906,4.27701 -33.39842,5.67479 -48.83582,4.14227 -19.52904,-1.93871 -40.58029,-7.4872 -53.59198,-14.12527 -4.68958,-2.39244 -4.04969,0.79376 -7.6416,-38.04958 -1.39863,-15.125 -4.99831,-53.57453 -7.99928,-85.4434 -3.00097,-31.86887 -5.45631,-58.92324 -5.45631,-60.12083 0,-1.92123 0.7119,-2.25798 6.05032,-2.86195 l 6.05032,-0.68452 5.69968,4.90351 c 10.36269,8.91515 18.56593,14.36491 29.69968,19.73073 16.2542,7.83358 29.60647,11.39099 48.80111,13.00195 l 7.80111,0.65473 -0.30111,4.65989 -0.30111,4.65989 -10.5,-0.30598 c -17.4054,-0.50721 -38.13775,-5.7005 -53.31294,-13.35446 l -5.81294,-2.9319 0.67399,12.29617 c 0.52547,9.58667 1.03514,12.59685 2.31294,13.66072 4.79235,3.99 26.52134,12.23498 37.64679,14.28493 6.22041,1.14615 6.30582,1.20527 4.88168,3.37879 -0.79723,1.21673 -1.77351,4.00841 -2.16952,6.20375 l -0.72,3.99151 -9.44173,-1.91414 c -5.19296,-1.05278 -13.96796,-3.62792 -19.5,-5.72255 -5.53205,-2.09462 -10.22596,-3.66586 -10.43092,-3.49164 -0.20496,0.17422 -0.0471,5.52697 0.35079,11.89501 l 0.72343,11.57824 4.91212,2.48916 c 5.89748,2.98848 22.87373,8.78831 23.59943,8.0626 0.28319,-0.28319 -0.47106,-1.76832 -1.67611,-3.30029 l -2.191,-2.7854 2.827,-2.26316 c 5.11028,-4.09105 8.41832,-3.9757 17.59693,0.61361 4.52653,2.26327 9.4519,4.11503 10.94526,4.11503 1.62752,0 4.21721,-1.30192 6.46468,-3.25 l 3.74946,-3.25 -2.26997,3.23203 c -1.24848,1.77761 -3.24521,3.91511 -4.43717,4.75 -2.82464,1.97845 -10.15767,1.93332 -18.30272,-0.11266 -3.57036,-0.89684 -6.7363,-1.38588 -7.03542,-1.08676 -0.29913,0.29912 0.19751,1.67535 1.10364,3.05827 2.15122,3.28318 9.46476,4.12214 29.40152,3.37272 21.14594,-0.79488 36.71748,-4.93771 57.26676,-15.23592 20.47927,-10.26313 36.55474,-22.66606 64.11181,-49.4651 16.90533,-16.4403 37.5099,-34.98123 39.83565,-35.84591 0.49311,-0.18334 0.89656,1.34371 0.89656,3.39343 0,3.48849 -1.03899,4.7569 -16.25,19.83815 -8.9375,8.86126 -21.7548,22.02188 -28.48288,29.24583 -18.11454,19.44959 -36.3377,33.53192 -57.44083,44.38863 l -9.6737,4.97673 -1.8263,-2.28463 c -1.66192,-2.079 -2.41131,-2.23541 -8.32629,-1.73777 -6.02853,0.50718 -6.23774,0.60148 -2.88424,1.30003 1.98866,0.41425 4.3425,0.47431 5.23075,0.13346 1.0675,-0.40964 2.52148,0.45757 4.28898,2.55812 1.47069,1.74782 6.76686,5.90899 11.76925,9.24705 19.49505,13.00888 23.37005,17.95428 23.72159,30.2743 0.18031,6.31916 0.31174,6.72907 1.35128,4.2145 0.63335,-1.53202 5.40172,-6.93202 10.59639,-12 11.9694,-11.6775 17.66749,-18.34421 32.66224,-38.2145 6.64076,-8.8 13.57928,-17.7225 15.41893,-19.82779 3.06183,-3.50392 3.57955,-3.73791 6.11901,-2.76556 l 2.77418,1.06223 -4.43861,5.44942 c -2.44124,2.99718 -8.3745,10.99168 -13.18503,17.76556 -12.2365,17.23065 -19.08363,26.03398 -27.58204,35.46212 -7.38756,8.19577 -22.43682,22.35402 -23.76081,22.35402 -0.39129,0 -1.44575,-1.53985 -2.34323,-3.42189 -1.46804,-3.07851 -1.47704,-3.55033 -0.0897,-4.70175 3.06383,-2.54275 0.0936,-11.93943 -5.43482,-17.19382 l -2.96441,-2.81746 -5.4801,3.50558 -5.4801,3.50558 -5.34435,-3.59909 -5.34434,-3.59909 5.19958,-2.54585 c 2.85976,-1.40022 5.19957,-2.8316 5.19957,-3.18085 0,-0.48146 -10.60427,-5.62454 -17.98917,-8.72477 -0.3582,-0.15037 -0.75178,1.9293 -0.87462,4.6215 -0.29561,6.47841 2.32674,9.56442 15.25855,17.95645 17.70202,11.48762 22.91475,17.9066 22.93025,28.23643 0.005,3.04754 -0.42819,6.32098 -0.9617,7.27432 -0.7167,1.28066 -0.95609,0.31286 -0.91667,-3.70575 0.0294,-2.99149 -0.21159,-5.70489 -0.53542,-6.02976 -0.32384,-0.32488 -4.34967,1.92662 -8.9463,5.00332 -4.59662,3.0767 -12.31917,7.58367 -17.16121,10.01548 l -8.80368,4.42149 v -5.40145 -5.40146 l 4.25,-1.69906 c 5.50954,-2.2026 21.99521,-11.90371 23.68148,-13.93553 1.73088,-2.08559 -0.75707,-4.11497 -11.65959,-9.51054 -8.74352,-4.32711 -10.27514,-4.67584 -13.33763,-3.03685 -1.67029,0.89391 -1.93426,0.69726 -1.93426,-1.44098 0,-1.36189 -0.39695,-2.7215 -0.88212,-3.02135 -1.10886,-0.68531 -1.89382,11.35856 -2.71862,41.71256 -0.74397,27.3798 -1.01408,28.27224 -9.90071,32.71171 -6.53801,3.26618 -19.2136,3.96554 -24.37512,1.34487 z m 9.37657,-34.277 c 15.91237,-3.48406 18.01794,-4.32204 17.86894,-7.11148 -0.0721,-1.34943 -0.18459,-7.47004 -0.25,-13.60136 l -0.11894,-11.14785 -7.25,1.81572 c -3.9875,0.99865 -9.725,2.3109 -12.75,2.91612 l -5.5,1.10038 0.33762,4.84983 c 0.42719,6.13652 -2.19779,11.55417 -8.00791,16.52742 -5.44072,4.65705 -10.65376,6.31597 -14.6482,4.66141 -2.92776,-1.21271 -5.20071,-4.6807 -5.15955,-7.87223 0.0366,-2.83618 3.52005,-9.61173 6.95008,-13.51833 l 3.23514,-3.68462 h -5.143 c -9.28174,0 -23.52388,-2.02113 -34.52403,-4.89938 l -10.81063,-2.82865 0.63524,7.51489 c 0.34938,4.13319 0.63524,10.16996 0.63524,13.41504 0,5.80723 0.0556,5.92338 3.52957,7.3749 4.914,2.0532 18.90112,5.28356 27.64413,6.38448 10.85906,1.36738 32.80804,0.40672 43.3263,-1.89629 z m -78.50884,-9.81499 c -0.005,-1.5125 -0.91266,-16.7 -2.01732,-33.75 -1.10467,-17.05 -2.89618,-45.4 -3.98115,-63 -1.08496,-17.6 -2.26817,-36.60828 -2.62935,-42.24062 l -0.65669,-10.24061 -7.46466,-5.06472 c -4.10557,-2.78559 -7.56137,-4.92731 -7.67956,-4.75938 -0.11819,0.16793 0.56539,13.13033 1.51906,28.80533 0.95367,15.675 2.69432,44.7 3.86811,64.5 3.13501,52.8825 3.72398,60.57358 4.7145,61.5641 1.0081,1.0081 12.42365,6.78688 13.5859,6.87745 0.4125,0.0322 0.74602,-1.17905 0.74116,-2.69155 z m 57.13733,-28.84533 c -0.20433,-0.49757 -4.22472,-6.41233 -8.93421,-13.14392 -7.70418,-11.01209 -8.92022,-12.30055 -12.12849,-12.85076 -11.36074,-1.94834 -19.52962,-3.87519 -27.06579,-6.3842 -4.675,-1.55645 -8.59082,-2.74566 -8.70182,-2.64269 -0.33905,0.3145 1.64999,24.8984 2.04657,25.29498 1.00072,1.00072 18.18512,6.46373 24.72725,7.86093 6.64567,1.4193 25.04833,3.27036 28.928,2.90975 0.825,-0.0767 1.33282,-0.54652 1.12849,-1.04409 z m 19.99052,-0.87501 c 4.60954,-0.80869 10.74349,-2.17612 13.63099,-3.03874 l 5.25,-1.5684 v -12.46126 c 0,-13.56466 0.16802,-13.24465 -6.0066,-11.44058 -7.35315,2.14841 -22.46895,4.04304 -33.01152,4.13769 -6.04003,0.0542 -10.98188,0.2501 -10.98188,0.43528 0,0.18518 2.40169,4.06486 5.33708,8.62152 2.93539,4.55666 6.54104,10.19733 8.01254,12.53483 3.1202,4.95646 4.30506,5.14181 17.76939,2.77966 z M 60.338984,361.9581 c -6.638019,-2.18689 -8.142735,-4.93437 -5.067606,-9.25299 3.345603,-4.69846 2.064687,-10.09494 -2.396149,-10.09494 -4.778405,0 -8.147862,6.88139 -7.253724,14.81417 0.418409,3.71211 0.303835,4.20936 -0.606324,2.63142 -0.61722,-1.07008 -1.134364,-5.01895 -1.149208,-8.77528 -0.02554,-6.46409 0.14783,-6.98601 3.238788,-9.75 2.441092,-2.18286 4.263097,-2.92031 7.215203,-2.92031 9.870313,0 18.268131,15.65954 11.704569,21.82569 -2.357251,2.21452 -3.034137,2.39575 -5.685549,1.52224 z m -4.5,-53.28823 c -4.638318,-1.13727 -12.736752,-5.57952 -15.424314,-8.46071 -2.99503,-3.21083 -2.510702,-3.24445 3.048361,-0.21164 13.333725,7.27438 32.027142,4.82898 41.266952,-5.39838 4.40914,-4.8804 7.601,-13.56111 7.63941,-20.77648 0.0261,-4.90552 0.20083,-5.42996 1.23679,-3.71249 0.70896,1.17535 1.19842,5.71092 1.18707,11 -0.0225,10.47522 -1.77386,14.84569 -8.31865,20.75851 -6.74099,6.09008 -20.803389,9.21197 -30.635619,6.80119 z m 34.467909,-4.86761 c 7.52146,-7.52146 9.5587,-13.16171 9.46049,-26.19209 -0.0885,-11.74583 -2.52555,-18.15507 -9.10552,-23.947 -13.73867,-12.09325 -33.780813,-4.74949 -38.712601,14.18492 -1.737839,6.67202 -0.865436,12.26702 2.769106,17.75918 2.308919,3.48901 2.422509,4.00242 0.884804,3.99916 -2.691841,-0.006 -7.73534,-3.43635 -10.62874,-7.22979 -4.003139,-5.24839 -5.635448,-11.11608 -5.635448,-20.25784 0,-7.42232 0.348288,-8.9361 3.510128,-15.25625 7.389118,-14.76998 21.881921,-22.71126 36.967211,-20.25607 11.47918,1.86829 20.10725,8.71637 25.948017,20.59488 2.46607,5.01528 2.9712,7.42101 3.34043,15.90881 0.894,20.55149 -6.67745,37.36764 -19.824297,44.02965 l -4.68542,2.37428 z m -16.98286,-5.44209 c -0.008,-0.6875 -1.54784,-11.36272 -3.421375,-23.72271 -1.873535,-12.35999 -3.19025,-22.82249 -2.926033,-23.25 0.264216,-0.42751 1.263916,-0.77729 2.221554,-0.77729 1.498142,0 2.260954,3.24448 5.465304,23.24563 3.48814,21.77253 3.61543,23.32513 2.00869,24.5 -2.17925,1.59351 -3.32912,1.59501 -3.34814,0.004 z M 27.433702,290.77385 C 9.6308955,272.97105 8.0061985,250.89203 22.69405,226.36375 24.973764,222.55669 31.734767,214.19221 37.718501,207.776 68.639604,174.62009 83.238593,153.31724 86.805463,136.1483 l 1.25442,-6.03813 1.16349,4 c 1.77195,6.09186 2.44529,22.21487 1.23165,29.49151 -1.86105,11.1583 -6.76398,18.63296 -30.178827,46.00849 -23.739165,27.75471 -31.423806,39.97484 -34.489307,54.84493 -2.270053,11.01155 0.381631,22.0453 7.263582,30.22404 4.35169,5.17169 1.426007,3.13749 -5.616769,-3.90529 z m 337.897408,1.85802 c -1.37067,-0.92532 -5.04209,-3.36268 -8.15871,-5.41637 -8.78644,-5.7898 -11.30641,-13.5129 -6.33637,-19.41946 4.18366,-4.972 9.91631,-4.94415 15.27331,0.0742 l 2.27036,2.12683 1.48274,-2.11691 c 2.42285,-3.4591 7.73785,-4.71433 11.79991,-2.78676 3.97184,1.88476 5.67663,5.05727 5.67663,10.56384 0,3.26602 -0.667,4.60461 -3.83831,7.70295 -2.11106,2.0625 -6.50211,5.37092 -9.75787,7.35204 -5.73961,3.49254 -5.99533,3.5509 -8.41169,1.91966 z m -84.18464,-6.36961 -3.6925,-3.26465 8.13737,-5.88532 c 10.76953,-7.78903 26.60084,-23.17116 45.28702,-44.00212 8.38732,-9.35 20.56673,-22.175 27.06537,-28.5 l 11.81569,-11.5 0.58074,3.5 c 0.54409,3.27914 0.10473,4.00482 -6.96265,11.5 -10.61975,11.26259 -20.11298,22.31478 -30.40017,35.39244 -11.7836,14.97998 -24.90679,28.5735 -36.89141,38.21357 -5.39763,4.34169 -10.13631,7.87526 -10.53041,7.85236 -0.3941,-0.0229 -2.37817,-1.51072 -4.40905,-3.30628 z M 63.042543,285.80397 c 2.162608,-3.76813 1.045139,-7.86119 -2.733132,-10.01091 -3.470076,-1.97437 -3.661901,-2.74246 -1.035902,-4.14785 2.771457,-1.48324 6.880365,0.34788 8.124707,3.62075 1.308277,3.44103 0.300102,8.21782 -2.341509,11.09421 -2.86229,3.11668 -3.94976,2.81638 -2.014164,-0.5562 z m 382.296437,-18.1938 v -7 h -4.5 c -3.81891,0 -4.5,-0.29982 -4.5,-1.98095 0,-1.89687 1.04502,-2.41839 6.5,-3.24381 1.74357,-0.26383 2,-1.07017 2,-6.28894 v -5.9863 l -4.25,0.33599 c -3.94463,0.31185 -4.25,0.15834 -4.25,-2.13646 0,-2.16366 0.562,-2.55672 4.5,-3.14726 l 4.5,-0.67482 v -7.33173 c 0,-5.7631 0.33843,-7.46161 1.58179,-7.93873 3.09046,-1.18592 3.41821,-0.52169 3.41821,6.92745 v 7.53445 l 5.25,-0.6151 c 7.92347,-0.92832 7.75,-0.76458 7.75,-7.31542 0,-4.47978 0.38571,-6.0724 1.58179,-6.53138 3.04893,-1.16999 3.41821,-0.55749 3.41821,5.66944 v 6.27642 l 3.86579,-0.36866 c 3.47381,-0.33128 3.91507,-0.1109 4.35175,2.17347 0.53703,2.8093 -0.65051,3.64234 -5.19234,3.64234 -3.29009,0 -4.0252,1.40839 -4.0252,7.71184 v 4.54826 l 4.40608,-0.49662 c 4.20636,-0.47412 4.4247,-0.36981 4.81674,2.30131 0.3909,2.66336 0.17896,2.82981 -4.40609,3.46042 l -4.81673,0.66247 v 8.40616 c 0,7.73949 -0.15861,8.40616 -2,8.40616 -1.83333,0 -2,-0.66667 -2,-8 v -8 l -3.25,0.011 c -1.7875,0.006 -4.9375,0.28993 -7,0.63084 l -3.75,0.61983 v 5.78737 c 0,6.69711 -0.65644,8.95096 -2.60699,8.95096 -1.05801,0 -1.39301,-1.68339 -1.39301,-7 z m 15.25,-14.63298 c 2.63167,-0.5033 2.75,-0.78107 2.75,-6.45521 v -5.92928 l -5.75,0.59224 c -8.49193,0.87465 -8.25,0.65525 -8.25,7.48174 v 6.11929 l 4.25,-0.64143 c 2.3375,-0.35278 5.4875,-0.87809 7,-1.16735 z m -271.47833,-7.1121 c -7.02557,-4.35661 -4.97578,-12.6968 4.32561,-17.60003 4.74066,-2.49904 6.17496,-2.78854 11.70457,-2.36246 l 6.30186,0.48559 -0.16826,-43.93928 c -0.0925,-24.1666 -0.003,-44.09191 0.19815,-44.27847 0.75955,-0.70316 57.89458,-13.86542 58.32387,-13.43613 0.24713,0.24713 -0.17877,22.81946 -0.94644,50.16074 -1.5409,54.8803 -1.26714,52.9537 -8.19944,57.70378 -3.66423,2.51077 -12.80181,3.85807 -17.74747,2.61679 -3.80068,-0.95391 -6.56412,-4.49514 -6.56412,-8.41166 0,-2.635 0.87679,-4.30588 3.78625,-7.21534 4.46357,-4.46356 10.60133,-6.44346 17.46375,-5.63339 l 4.75,0.56071 v -30.45288 c 0,-16.74909 -0.3375,-30.45739 -0.75,-30.46289 -0.4125,-0.006 -10.25635,2.27769 -21.87521,5.07376 l -21.12521,5.08377 -0.63671,20.17623 c -1.74177,55.19403 -1.61079,53.52032 -4.45268,56.89771 -5.27514,6.26915 -18.12056,8.92026 -24.38852,5.03345 z m 52.74522,-95.37935 20.48311,-5.12444 v -2.87556 c 0,-2.10375 -0.48374,-2.87557 -1.80228,-2.87557 -1.70566,0 -38.2906,8.4547 -40.94772,9.46293 -1.85194,0.7027 -1.61374,6.53707 0.26689,6.53707 0.83428,0 10.73428,-2.306 22,-5.12443 z m -22.94294,88.37443 c 0.73604,-2.0625 1.35802,-4.72675 1.38216,-5.92054 0.0324,-1.60148 0.83042,-2.32247 3.04389,-2.75 1.65,-0.31871 4.34773,-0.83972 5.99496,-1.15781 2.52288,-0.48718 3.14165,-0.19254 3.92554,1.86925 0.51181,1.34617 2.35349,3.56119 4.0926,4.92225 l 3.16203,2.47466 -10.12562,2.1561 c -13.58759,2.89326 -13.10103,2.96084 -11.47556,-1.59391 z m 136.94888,-1.81472 c -5.82919,-3.03952 -6.2262,-7.73252 -1.03941,-12.28658 4.36728,-3.83453 9.69818,-5.46702 16.3489,-5.00656 2.84291,0.19682 5.16127,0.13286 5.15192,-0.14214 -0.009,-0.275 -0.90576,-14.9 -1.99203,-32.5 -1.08626,-17.6 -1.97889,-33.17549 -1.98361,-34.61221 -0.009,-2.58149 0.27066,-2.68024 23.7414,-8.39855 13.0625,-3.18249 25.58926,-5.99477 27.83723,-6.2495 l 4.08724,-0.46315 0.66276,22.77331 c 1.15178,39.57632 0.891,56.67925 -0.90331,59.24098 -2.3356,3.33454 -9.07395,6.36863 -15.36153,6.91686 -4.73555,0.41291 -6.09801,0.12281 -9.07239,-1.93176 -2.9431,-2.03296 -3.47251,-2.96327 -3.32726,-5.84681 0.32101,-6.37259 9.83686,-11.56723 19.74585,-10.77913 5.48227,0.43602 5.13751,3.7478 3.0866,-29.65004 -0.81059,-13.2 -1.48087,-24.29618 -1.4895,-24.65818 -0.009,-0.362 -9.12819,1.66799 -20.26569,4.51108 l -20.25,5.16927 v 33.16559 33.16559 l -2.95961,3.09683 c -5.0429,5.27671 -16.15738,7.54079 -22.01756,4.4851 z M 61.850325,225.40329 c -0.252442,-0.71121 -0.936998,-3.49455 -1.521236,-6.18518 -0.95254,-4.38681 -0.85628,-5.08396 0.932009,-6.75 1.096842,-1.02187 2.19188,-1.85794 2.433418,-1.85794 0.37266,0 2.644468,11.42294 2.644468,13.29673 0,0.3481 -0.906676,1.11814 -2.014837,1.71121 -1.521602,0.81434 -2.127196,0.76175 -2.473822,-0.21482 z m 208.832365,-0.94368 c 0.34594,-1.29219 0.63513,-4.17227 0.64264,-6.40017 0.0129,-3.83798 0.26313,-4.17174 4.76365,-6.35451 12.25591,-5.94418 28.89961,-18.16502 53.60769,-39.3621 43.28842,-37.13718 76.01321,-55.87051 110.64231,-63.33726 12.14377,-2.61846 32.77111,-2.43242 43.14353,0.38911 11.16758,3.03782 24.90943,10.30517 26.29026,13.90354 0.29206,0.7611 -1.37356,0.0782 -3.70139,-1.51759 -20.31208,-13.92441 -45.35089,-16.25058 -74.7324,-6.94284 -16.50313,5.22801 -36.02958,15.2971 -52.23469,26.93555 -3.70407,2.66026 -7.64157,4.83683 -8.75,4.83683 -1.10842,0 -2.01531,0.61097 -2.01531,1.35771 0,0.74675 -4.8375,5.35072 -10.75,10.23106 -5.9125,4.88033 -15.475,13.39742 -21.25,18.92686 -25.11134,24.04355 -42.91769,37.5994 -63.09378,48.03287 -3.18112,1.64502 -3.18945,1.64274 -2.56251,-0.69906 z m 217.65629,-10.55567 c -2.67072,-0.9763 -6,-4.59286 -6,-6.51774 0,-7.08124 9.65625,-13.18857 20.59019,-13.02277 l 6.16721,0.0935 -0.45081,-6.1734 c -0.24795,-3.39536 -0.75586,-12.01852 -1.1287,-19.16257 -0.78446,-15.03124 0.0923,-13.91509 -13.8668,-17.65304 -14.78731,-3.95972 -35.23175,-2.55348 -53.62219,3.68833 -3.9539,1.34197 -7.26158,2.44308 -7.35042,2.44692 -0.34778,0.015 0.29753,-2.96238 0.7374,-3.40225 1.44745,-1.44745 19.28045,-5.6546 28.24328,-6.66314 12.52864,-1.40978 25.6505,-0.18332 37.16724,3.47393 l 7.5136,2.38601 v -7.4064 -7.4064 l -5.75,-2.57247 c -3.1625,-1.41485 -9.3305,-3.48972 -13.70668,-4.61083 -10.89649,-2.79149 -29.70697,-2.143 -43.64339,1.50461 -6.51434,1.70501 -10.68135,2.29149 -12.9641,1.82462 -3.22627,-0.65984 -3.05836,-0.7758 4.10007,-2.83155 23.54127,-6.76056 45.08962,-6.5502 63.55631,0.62043 5.62194,2.18301 7.40779,2.54063 7.40779,1.48344 0,-1.92527 7.90182,-1.85053 10.68814,0.10109 1.17323,0.82176 3.77396,4.42816 5.7794,8.01422 4.33517,7.75202 7.23198,9.99096 11.79414,9.11572 2.30454,-0.44212 2.80579,-0.33773 1.73832,0.36202 -0.825,0.54081 -3.39604,0.99019 -5.71341,0.99861 -3.77924,0.0137 -4.87436,-0.60297 -10.62744,-5.98469 -3.52771,-3.3 -6.69417,-6 -7.03658,-6 -0.34241,0 -0.62257,3.53123 -0.62257,7.84719 0,7.12801 0.2062,7.95332 2.25,9.00527 l 2.25,1.15808 -2.33365,-0.59921 -2.33364,-0.5992 0.27571,23.34393 c 0.28871,24.44519 0.13827,25.48382 -4.2666,29.45542 -4.09203,3.68953 -13.69052,5.56538 -18.84182,3.68229 z m -102.95397,-4.97129 c 0.0375,-2.29693 1.41819,-3.89584 7.41522,-8.58699 7.55448,-5.90945 24.17398,-16.73549 25.69134,-16.73549 2.61181,0 0.0266,3.11549 -5.72076,6.89414 -5.65519,3.71807 -12.02453,8.61912 -24.59903,18.92834 l -2.8328,2.32248 0.046,-2.82248 z M 220.6447,202.96449 c -0.6975,-1.81768 0.56111,-8.35432 1.6086,-8.35432 4.93803,0 28.76712,-5.72335 35.39578,-8.50148 1.62215,-0.67985 1.7779,-0.26126 1.5,4.03121 l -0.3101,4.78983 -5.5,1.8816 c -7.65893,2.6202 -19.41062,5.58088 -26.3344,6.6346 -4.63235,0.705 -5.94266,0.60581 -6.35988,-0.48144 z m 75.61751,-12.94682 c -1.94215,-2.34015 2.37977,-9.95742 7.82897,-13.79837 3.73865,-2.63525 4.09141,-3.1941 2.81921,-4.46629 -1.2722,-1.2722 -2.24352,-0.94587 -7.76278,2.60809 -8.61981,5.55045 -24.53365,14.24907 -26.06821,14.24907 -0.86266,0 -1.14913,-1.32827 -0.91663,-4.25 0.32494,-4.08321 0.56394,-4.35963 6.08995,-7.04349 3.16345,-1.53642 9.44876,-4.94681 13.96734,-7.57864 l 8.2156,-4.78513 -11.21868,-11.74798 -11.21869,-11.74798 2.92035,-2.38743 c 1.60619,-1.31308 4.27034,-2.41064 5.92034,-2.43901 1.65,-0.0284 5.7,-0.70352 9,-1.50034 3.3,-0.79682 8.50906,-1.46479 11.57569,-1.48438 4.79398,-0.0306 5.91556,0.33865 8,2.63398 l 2.42431,2.66959 -2.47251,-1.66959 c -1.35987,-0.91828 -3.94199,-1.6696 -5.73804,-1.6696 -3.72319,0 -22.28945,5.70325 -22.28945,6.84695 0,3.32276 5.91929,3.9464 15.5,1.63305 9.36411,-2.26105 14.79332,-1.94551 18.37457,1.06791 l 3.02802,2.54791 10.7987,-8.16092 c 31.68574,-23.94591 62.59941,-40.537741 89.29871,-47.927951 8.70043,-2.40823 24.59833,-4.99253 30.76506,-5.00105 l 4.26506,-0.0059 -0.67077,-23.883192 c -0.66858,-23.805076 -0.66377,-23.885413 1.46885,-24.56228 3.77726,-1.198858 7.44016,1.572336 11.17461,8.454241 2.82457,5.205153 4.21339,6.727705 7.00982,7.684789 3.37665,1.155663 3.39848,1.19535 0.68771,1.25 -4.01634,0.08097 -8.00923,-2.283154 -11.6765,-6.913456 -1.75554,-2.216556 -3.58671,-4.030102 -4.06926,-4.030102 -0.48254,0 -1.00723,9.439741 -1.16597,20.977203 l -0.28861,20.977207 4.5,0.55946 c 8.80735,1.09497 17.60274,3.56558 24.75,6.95222 3.9875,1.88943 7.25,3.66033 7.25,3.93533 0,0.275 -3.2625,-1.02883 -7.25,-2.89741 -7.3755,-3.45622 -19.7087,-6.50401 -26.31913,-6.50401 -3.62314,0 -3.64809,0.0286 -3.00673,3.44732 0.82666,4.4065 -1.28735,9.577811 -4.87684,11.929731 -1.49905,0.98222 -5.07759,2.0286 -7.9523,2.3253 -10.88718,1.12366 -15.5935,-5.4018 -8.58491,-11.903261 3.50091,-3.2476 10.06592,-5.18636 15.22076,-4.49495 2.07303,0.27805 3.76915,0.0984 3.76915,-0.3993 0,-1.36645 -7.44459,-1.08306 -17.4298,0.66351 -23.60253,4.12845 -53.38907,17.918761 -81.43481,37.701971 -4.74947,3.35023 -17.48452,13.16612 -28.30012,21.8131 -10.81561,8.64697 -20.4825,16.17941 -21.48199,16.73875 -1.68253,0.94159 -1.57069,1.32382 1.50855,5.15552 3.83015,4.7661 3.7306,6.52395 -0.71715,12.66388 -4.52413,6.24539 -12.36008,9.21367 -15.22145,5.76593 z m 18.49483,-35.09879 8.91805,-6.61813 -2.40754,-1.94951 c -3.14334,-2.54532 -8.96524,-2.02477 -19.2315,1.71955 l -7.64048,2.78664 4.59318,5.37637 c 2.52625,2.957 5.10101,5.35991 5.7217,5.33979 0.62069,-0.0201 5.14166,-3.01474 10.04659,-6.65471 z m 69.58194,29.43093 c 0,-3.00763 0.75576,-3.77039 9.75,-9.84032 5.3625,-3.61899 12.73288,-8.23501 16.37861,-10.25783 6.34234,-3.51902 6.65178,-3.58928 7.16493,-1.62698 0.36844,1.40889 -0.14136,2.4586 -1.62861,3.35341 -9.00703,5.41916 -17.19655,10.98255 -23.37901,15.88208 -3.9906,3.1625 -7.48745,5.75 -7.77078,5.75 -0.28332,0 -0.51514,-1.46716 -0.51514,-3.26036 z M 51.433837,176.46756 c -0.641649,-4.59657 -2.57797,-16.00739 -4.302937,-25.35739 -1.911336,-10.3602 -3.166692,-20.51519 -3.214109,-26 -0.07001,-8.09794 0.236038,-9.66237 3.05346,-15.60855 5.06298,-10.685431 13.351901,-15.032291 22.750154,-11.930581 4.142708,1.36721 4.614048,2.602471 1.368579,3.586681 -3.187116,0.9665 -6.630232,4.33937 -8.851581,8.67097 -4.119871,8.03369 -5.0546,15.19012 -5.587861,42.78148 -0.44495,23.02206 -0.744266,26.87501 -2.28062,29.35739 l -1.768452,2.85738 z m 381.905143,0.78485 c 0,-2.2361 16.67943,-7.26025 30.88755,-9.3039 9.51965,-1.36927 13.09318,-1.45342 21.71982,-0.51148 9.95632,1.08713 19.85124,3.04786 19.11196,3.78715 -0.19651,0.1965 -3.47625,-0.30345 -7.28831,-1.111 -9.14299,-1.93687 -27.53165,-1.90594 -37.22318,0.0626 -6.55533,1.33153 -19.2769,5.28202 -25.45784,7.90556 -1.23945,0.52609 -1.75,0.28426 -1.75,-0.82894 z M 159.51178,165.721 c -8.67729,-5.68132 -11.15717,-8.99881 -11.16621,-14.93775 -0.005,-3.45409 0.58306,-4.91658 2.91649,-7.25 1.74692,-1.74693 3.97992,-2.92308 5.54966,-2.92308 3.20104,0 8.10396,2.42119 9.32644,4.60564 0.78563,1.40384 1.22102,1.28326 3.46358,-0.95931 9.58381,-9.58381 22.80105,3.9938 14.03229,14.41487 -2.12053,2.5201 -15.45973,12.10265 -16.55528,11.89289 -0.13187,-0.0252 -3.53701,-2.20471 -7.56697,-4.84326 z M 83.894593,119.1343 c -2.87897,-5.8844 -6.92352,-9.44293 -11.886255,-10.45792 l -3.101285,-0.63428 2.215966,-2.21596 c 4.213464,-4.21347 10.334944,-1.85196 14.072684,5.42887 1.187,2.31219 2.75666,13.35516 1.89831,13.35516 -0.28618,0 -1.72592,-2.46414 -3.19942,-5.47587 z M 339.55076,116.836 c 22.8021,-23.618861 23.83282,-45.951798 2.13709,-46.304703 l -4.84887,-0.07887 5,-2.40826 c 6.77682,-3.264071 11.03223,-3.116506 16.86883,0.584958 12.53429,7.949006 11.13172,25.820754 -3.23138,41.174955 -5.68196,6.07404 -17.55369,13.80609 -21.19775,13.80609 -0.6973,0 1.67513,-3.04838 5.27208,-6.77417 z m 32.44321,-20.054571 c -2.1712,-2.39914 -2.10048,-5.45812 0.17375,-7.51627 3.53181,-3.19624 8.42126,-0.96379 8.42126,3.84501 0,4.90626 -5.39276,7.209711 -8.59501,3.67126 z m -40.65499,-12.17126 c -2.80491,-2.804907 -2.57548,-7.515431 0.51665,-10.607558 2.83392,-2.833917 5.43312,-2.581464 9.23335,0.896807 2.80508,2.567434 2.86551,5.658541 0.17742,9.075891 -2.53576,3.2237 -7.0499,3.51238 -9.92742,0.63486 z m 40.65499,-6.828741 c -2.37483,-2.624157 -2.04035,-5.872659 0.79605,-7.731134 3.09592,-2.028528 6.35468,-1.081317 7.60639,2.210919 2.10358,5.532847 -4.47793,9.856753 -8.40244,5.520215 z"
     id="path817"
     inkscape:connector-curvature="0" />
</svg>
